<?xml version="1.0" encoding="UTF-8"?>
<!DOCTYPE svg PUBLIC "-//W3C//DTD SVG 1.1//EN" "http://www.w3.org/Graphics/SVG/1.1/DTD/svg11.dtd">
<svg xmlns="http://www.w3.org/2000/svg" version="1.1" width="370px" height="92px" style="shape-rendering:geometricPrecision; text-rendering:geometricPrecision; image-rendering:optimizeQuality; fill-rule:evenodd; clip-rule:evenodd" xmlns:xlink="http://www.w3.org/1999/xlink">
<g><path style="opacity:1" fill="#fffdfb" d="M -0.5,-0.5 C 12.1667,-0.5 24.8333,-0.5 37.5,-0.5C 31.4293,0.94405 25.7626,3.44405 20.5,7C 30.7404,15.274 41.4071,15.6074 52.5,8C 54.5,5.66667 56.5,3.33333 58.5,1C 56.6183,0.801916 54.9516,0.301916 53.5,-0.5C 158.833,-0.5 264.167,-0.5 369.5,-0.5C 369.5,9.83333 369.5,20.1667 369.5,30.5C 363.993,24.2354 357.993,23.9021 351.5,29.5C 350.827,26.0032 348.827,24.8365 345.5,26C 344.35,35.0887 344.183,44.2553 345,53.5C 347.267,54.9348 349.267,54.6015 351,52.5C 351.333,46.5 351.667,40.5 352,34.5C 354.559,31.6508 357.726,30.8175 361.5,32C 362.191,33.0674 362.691,34.2341 363,35.5C 363.333,41.5 363.667,47.5 364,53.5C 365.828,54.7525 367.661,54.7525 369.5,53.5C 369.5,66.1667 369.5,78.8333 369.5,91.5C 246.167,91.5 122.833,91.5 -0.5,91.5C -0.5,60.8333 -0.5,30.1667 -0.5,-0.5 Z"/></g>
<g><path style="opacity:1" fill="#ea6205" d="M 37.5,-0.5 C 42.8333,-0.5 48.1667,-0.5 53.5,-0.5C 54.9516,0.301916 56.6183,0.801916 58.5,1C 56.5,3.33333 54.5,5.66667 52.5,8C 41.4071,15.6074 30.7404,15.274 20.5,7C 25.7626,3.44405 31.4293,0.94405 37.5,-0.5 Z"/></g>
<g><path style="opacity:1" fill="#eb650d" d="M 62.5,2.5 C 64.9687,3.56855 67.3021,4.90189 69.5,6.5C 62.9536,14.9508 54.2869,20.1174 43.5,22C 36.8333,22.6667 30.1667,22.6667 23.5,22C 18.6191,20.8929 14.2858,18.7262 10.5,15.5C 10.8869,14.2801 11.7202,13.6135 13,13.5C 26.7472,19.255 40.2472,18.755 53.5,12C 57.3802,9.62108 60.3802,6.45441 62.5,2.5 Z"/></g>
<g><path style="opacity:1" fill="#ea6102" d="M 75.5,11.5 C 78.2719,12.4364 80.2719,14.2697 81.5,17C 68.9686,37.9576 64.8019,60.4576 69,84.5C 63.826,87.558 58.326,89.3914 52.5,90C 46.2076,75.7078 37.5409,63.0411 26.5,52C 19.1731,45.1706 10.5065,41.3372 0.5,40.5C 0.863669,35.3483 1.86367,30.3483 3.5,25.5C 26.648,31.0185 48.648,28.1851 69.5,17C 71.7632,15.383 73.7632,13.5497 75.5,11.5 Z"/></g>
<g><path style="opacity:1" fill="#ea6308" d="M 110.5,30.5 C 110.217,29.7109 109.717,29.0442 109,28.5C 108.5,36.4931 108.334,44.4931 108.5,52.5C 106.591,54.8726 104.758,54.8726 103,52.5C 102.167,39.8202 102.334,27.1535 103.5,14.5C 106.303,12.9804 108.47,13.6471 110,16.5C 113.745,24.3241 117.745,31.9908 122,39.5C 126.735,31.7524 131.069,23.7524 135,15.5C 136.523,13.3799 138.356,13.0465 140.5,14.5C 141.833,27.5 141.833,40.5 140.5,53.5C 138.958,54.7468 137.458,54.7468 136,53.5C 135.667,45.1667 135.333,36.8333 135,28.5C 131.667,34.5 128.333,40.5 125,46.5C 122.091,48.9152 119.757,48.2486 118,44.5C 115.742,39.6474 113.242,34.9807 110.5,30.5 Z"/></g>
<g><path style="opacity:1" fill="#eb660e" d="M 284.5,13.5 C 291.026,12.7457 297.026,14.0791 302.5,17.5C 303.956,19.8779 303.623,21.8779 301.5,23.5C 295.373,19.0795 288.873,18.4128 282,21.5C 281.056,24.3471 281.556,26.8471 283.5,29C 289.629,30.8637 295.629,33.0303 301.5,35.5C 306.998,45.0162 304.331,51.1829 293.5,54C 288.442,54.6612 283.442,54.3279 278.5,53C 276.024,51.6912 274.024,49.8579 272.5,47.5C 272.833,45.8333 273.833,44.8333 275.5,44.5C 280.945,48.1978 286.945,49.3644 293.5,48C 298.368,45.5228 298.701,42.5228 294.5,39C 289.744,37.9776 285.077,36.6443 280.5,35C 273.188,31.1134 271.688,25.6134 276,18.5C 278.682,16.415 281.516,14.7483 284.5,13.5 Z"/></g>
<g><path style="opacity:1" fill="#eb660e" d="M 157.5,25.5 C 174.991,25.1668 180.491,33.1668 174,49.5C 165.294,56.6955 157.294,56.0288 150,47.5C 146.475,37.9042 148.975,30.5708 157.5,25.5 Z"/></g>
<g><path style="opacity:1" fill="#ea6307" d="M 184.5,25.5 C 185.93,25.4208 187.264,25.7542 188.5,26.5C 189.331,32.8072 189.831,39.1406 190,45.5C 190.758,47.9096 192.425,48.9096 195,48.5C 198.06,48.7751 200.06,47.4417 201,44.5C 201.333,38.8333 201.667,33.1667 202,27.5C 203.523,25.3799 205.356,25.0465 207.5,26.5C 208.665,35.1475 208.832,43.8142 208,52.5C 204.841,55.3407 202.508,54.674 201,50.5C 195.43,55.7074 189.93,55.7074 184.5,50.5C 181.974,42.0268 181.974,33.6934 184.5,25.5 Z"/></g>
<g><path style="opacity:1" fill="#eb6610" d="M 221.5,25.5 C 224.85,25.335 228.183,25.5017 231.5,26C 234.076,26.7822 236.076,28.2822 237.5,30.5C 237.135,31.9019 236.301,32.9019 235,33.5C 231.396,31.4052 227.563,30.5718 223.5,31C 220.674,33.5219 221.007,35.5219 224.5,37C 228.994,37.6627 233.161,39.1627 237,41.5C 238.724,46.7314 237.224,50.5647 232.5,53C 226.114,55.5885 220.28,54.7551 215,50.5C 214.146,48.3927 214.812,47.0593 217,46.5C 221.321,48.4157 225.821,48.9157 230.5,48C 231.833,46.6667 231.833,45.3333 230.5,44C 224.816,43.55 219.983,41.3834 216,37.5C 215.333,35.1667 215.333,32.8333 216,30.5C 217.812,28.6997 219.645,27.0331 221.5,25.5 Z"/></g>
<g><path style="opacity:1" fill="#eb660f" d="M 251.5,25.5 C 261.352,23.904 267.019,27.904 268.5,37.5C 268.291,38.9945 267.624,40.1612 266.5,41C 260.843,41.4994 255.176,41.6661 249.5,41.5C 249.549,44.0991 250.549,46.2658 252.5,48C 257.663,48.817 262.663,48.317 267.5,46.5C 267.377,51.437 264.711,53.937 259.5,54C 246.57,54.7008 241.07,48.5341 243,35.5C 244.289,30.7209 247.123,27.3875 251.5,25.5 Z"/></g>
<g><path style="opacity:1" fill="#ea6307" d="M 312.5,25.5 C 313.93,25.4208 315.264,25.7542 316.5,26.5C 317.331,32.8072 317.831,39.1406 318,45.5C 318.758,47.9096 320.425,48.9096 323,48.5C 326.06,48.7751 328.06,47.4417 329,44.5C 329.17,38.4725 329.67,32.4725 330.5,26.5C 332.167,25.1667 333.833,25.1667 335.5,26.5C 336.665,35.1475 336.832,43.8142 336,52.5C 332.841,55.3407 330.508,54.674 329,50.5C 323.43,55.7074 317.93,55.7074 312.5,50.5C 309.974,42.0268 309.974,33.6934 312.5,25.5 Z"/></g>
<g><path style="opacity:1" fill="#eb650d" d="M 369.5,30.5 C 369.5,38.1667 369.5,45.8333 369.5,53.5C 367.661,54.7525 365.828,54.7525 364,53.5C 363.667,47.5 363.333,41.5 363,35.5C 362.691,34.2341 362.191,33.0674 361.5,32C 357.726,30.8175 354.559,31.6508 352,34.5C 351.667,40.5 351.333,46.5 351,52.5C 349.267,54.6015 347.267,54.9348 345,53.5C 344.183,44.2553 344.35,35.0887 345.5,26C 348.827,24.8365 350.827,26.0032 351.5,29.5C 357.993,23.9021 363.993,24.2354 369.5,30.5 Z"/></g>
<g><path style="opacity:1" fill="#eb6711" d="M 86.5,27.5 C 87.3764,27.3691 88.0431,27.7025 88.5,28.5C 89.1667,30.1667 89.8333,31.8333 90.5,33.5C 79.4847,46.8973 74.6514,62.2306 76,79.5C 68.7262,59.937 72.2262,42.6037 86.5,27.5 Z"/></g>
<g><path style="opacity:1" fill="#f7c3a0" d="M 110.5,30.5 C 109.833,37.8333 109.167,45.1667 108.5,52.5C 108.334,44.4931 108.5,36.4931 109,28.5C 109.717,29.0442 110.217,29.7109 110.5,30.5 Z"/></g>
<g><path style="opacity:1" fill="#fef8f4" d="M 253.5,30.5 C 258.906,29.4124 261.906,31.5791 262.5,37C 258.179,37.499 253.846,37.6657 249.5,37.5C 249.571,34.3477 250.905,32.0144 253.5,30.5 Z"/></g>
<g><path style="opacity:1" fill="#fefbf8" d="M 158.5,31.5 C 168.083,30.6055 171.583,34.9388 169,44.5C 168.535,45.9308 167.701,47.0975 166.5,48C 157.419,48.903 153.919,44.7363 156,35.5C 156.662,34.0161 157.496,32.6828 158.5,31.5 Z"/></g>
<g><path style="opacity:1" fill="#eb660f" d="M 90.5,44.5 C 91.3417,55.4886 88.175,65.4886 81,74.5C 78.3398,62.4248 81.5064,52.4248 90.5,44.5 Z"/></g>
<g><path style="opacity:1" fill="#ea650d" d="M 0.5,48.5 C 17.6812,50.833 30.5146,59.4997 39,74.5C 41.7022,79.5633 43.5356,84.8966 44.5,90.5C 41.5525,90.7771 38.7191,90.4438 36,89.5C 33.606,74.1152 25.106,63.9485 10.5,59C 7.51838,58.502 4.51838,58.3354 1.5,58.5C 0.792874,55.2139 0.459541,51.8806 0.5,48.5 Z"/></g>
<g><path style="opacity:1" fill="#ea640c" d="M 3.5,62.5 C 18.0265,62.4112 26.6932,69.4112 29.5,83.5C 29.1667,84.8333 28.8333,86.1667 28.5,87.5C 16.4634,82.7968 8.13008,74.4634 3.5,62.5 Z"/></g>
<g><path style="opacity:1" fill="#ef853f" d="M 232.5,63.5 C 236.226,63.1774 239.893,63.5108 243.5,64.5C 242.311,65.4287 240.978,65.762 239.5,65.5C 238.833,80.1667 238.167,80.1667 237.5,65.5C 235.219,65.9227 233.552,65.256 232.5,63.5 Z"/></g>
<g><path style="opacity:1" fill="#f49b63" d="M 229.5,63.5 C 230.805,65.3972 231.471,67.7305 231.5,70.5C 231.167,72.8333 230.833,75.1667 230.5,77.5C 229.507,72.8804 229.173,68.2137 229.5,63.5 Z"/></g>
<g><path style="opacity:1" fill="#f18e4b" d="M 109.5,69.5 C 147.839,69.1668 186.172,69.5001 224.5,70.5C 205.333,70.8333 186.167,71.1667 167,71.5C 147.488,71.4996 128.322,70.833 109.5,69.5 Z"/></g>
<g><path style="opacity:1" fill="#f18e4b" d="M 247.5,69.5 C 285.839,69.1668 324.172,69.5001 362.5,70.5C 343.333,70.8333 324.167,71.1667 305,71.5C 285.488,71.4996 266.322,70.833 247.5,69.5 Z"/></g>
</svg>
